<?xml version="1.0" standalone="no"?>
<!DOCTYPE svg PUBLIC "-//W3C//DTD SVG 20010904//EN"
 "http://www.w3.org/TR/2001/REC-SVG-20010904/DTD/svg10.dtd">
<svg version="1.0" xmlns="http://www.w3.org/2000/svg"
 width="527.000000pt" height="147.000000pt" viewBox="0 0 527.000000 147.000000"
 preserveAspectRatio="xMidYMid meet">
<metadata>
Created by potrace 1.16, written by Peter Selinger 2001-2019
</metadata>
<g transform="translate(0.000000,147.000000) scale(0.100000,-0.100000)"
fill="#000000" stroke="none">
<path d="M332 1215 c-8 -16 -23 -28 -42 -31 -29 -6 -30 -8 -30 -65 l0 -58 38
-3 37 -3 0 -97 c0 -93 -1 -98 -32 -142 l-33 -46 35 0 35 0 0 -210 0 -210 89 0
89 0 -20 52 c-19 50 -37 198 -38 311 l0 57 75 0 75 0 0 -210 0 -210 70 0 70 0
0 419 0 419 -129 4 c-118 3 -132 5 -153 26 -19 17 -36 22 -75 22 -44 0 -51 -3
-61 -25z m286 -232 l3 -73 -86 0 -85 0 0 34 c0 44 16 87 38 104 10 8 38 12 72
10 l55 -3 3 -72z"/>
<path d="M3080 865 l0 -375 -60 0 -60 0 0 350 0 350 -70 0 -70 0 0 -420 0
-419 123 -3 c116 -3 123 -4 132 -25 8 -20 17 -23 62 -23 29 0 53 4 53 9 0 5 7
17 16 25 12 13 41 16 150 16 l134 0 0 425 0 425 -65 0 -65 0 0 -355 0 -355
-45 -2 c-25 -1 -52 -2 -61 -2 -9 -1 -26 12 -38 27 -20 27 -21 37 -18 275 3
259 11 339 42 410 l19 42 -90 0 -89 0 0 -375z"/>
<path d="M902 1040 c-6 -11 -23 -22 -37 -26 -22 -6 -25 -11 -25 -55 l0 -49 35
0 35 0 0 -280 0 -280 71 0 c64 0 70 2 64 17 -34 79 -38 107 -43 289 -2 106 -2
203 2 218 9 35 39 49 87 41 l39 -7 0 -279 0 -279 55 0 55 0 0 335 0 335 -99 0
c-83 0 -102 3 -124 20 -34 27 -98 27 -115 0z"/>
<path d="M1390 1040 c-6 -11 -22 -23 -35 -26 -22 -6 -25 -11 -25 -55 l0 -49
35 0 35 0 0 -225 0 -225 -35 0 -35 0 0 -55 0 -55 140 0 140 0 0 54 0 55 -52 3
-53 3 0 200 c0 110 4 213 8 229 8 27 10 28 53 22 l44 -6 0 55 0 55 -39 0 c-23
0 -48 8 -64 20 -35 27 -102 27 -117 0z"/>
<path d="M1907 1040 c-5 -18 -14 -20 -101 -20 l-96 0 0 -335 0 -335 50 0 50 0
0 280 0 280 50 0 50 0 0 -280 0 -280 76 0 c62 0 74 3 66 13 -27 32 -40 129
-44 321 -3 189 -2 196 19 217 18 18 28 21 67 15 l46 -7 0 -280 0 -279 50 0 50
0 0 335 0 335 -105 0 c-92 0 -108 3 -125 20 -13 13 -33 20 -59 20 -30 0 -40
-4 -44 -20z"/>
<path d="M2396 1045 c-3 -8 -17 -15 -31 -15 -24 0 -25 -2 -25 -60 l0 -60 30 0
30 0 0 -74 c0 -61 -4 -79 -25 -110 l-24 -36 24 0 25 0 0 -170 0 -170 165 0
165 0 0 55 0 55 -109 0 -108 0 -7 31 c-3 17 -6 69 -6 115 l0 84 115 0 115 0 0
55 0 55 -120 0 -120 0 0 34 c0 19 9 45 22 61 l22 28 98 -7 98 -7 0 56 0 55
-90 0 c-84 0 -140 13 -140 32 0 4 -22 8 -49 8 -34 0 -51 -4 -55 -15z"/>
<path d="M3646 1045 c-3 -8 -17 -15 -31 -15 -24 0 -25 -2 -25 -60 l0 -60 30 0
30 0 0 -74 c0 -61 -4 -79 -25 -110 l-24 -36 24 0 25 0 0 -170 0 -170 165 0
165 0 0 55 0 55 -109 0 -109 0 -7 63 c-4 34 -5 85 -3 112 l3 50 113 3 112 3 0
54 0 54 -117 3 -118 3 1 38 c1 21 9 46 20 58 18 20 26 21 117 15 l97 -7 0 56
0 55 -94 0 c-78 0 -97 3 -119 20 -31 25 -112 28 -121 5z"/>
<path d="M4127 1035 c-10 -14 -24 -25 -32 -25 -11 0 -15 -13 -15 -50 0 -49 1
-50 30 -50 l30 0 0 -74 c0 -61 -4 -79 -25 -110 l-24 -36 24 0 25 0 0 -170 0
-170 75 0 76 0 -15 28 c-21 41 -36 135 -36 229 l0 83 60 0 60 0 0 -170 0 -170
55 0 55 0 0 335 0 335 -90 0 c-84 0 -140 13 -140 32 0 4 -21 8 -47 8 -39 -1
-51 -5 -66 -25z m206 -121 l37 -7 0 -53 0 -54 -70 0 -70 0 0 34 c0 34 32 86
53 86 7 0 29 -3 50 -6z"/>
<path d="M4620 1045 c-7 -8 -23 -15 -36 -15 -23 0 -24 -3 -24 -60 l0 -60 35 0
35 0 0 -101 c0 -91 -3 -106 -29 -160 l-30 -59 31 0 30 0 -3 -120 -4 -120 48 0
47 0 0 74 c0 40 3 94 6 120 l7 46 63 0 64 0 0 -140 0 -140 50 0 50 0 0 195 0
195 -43 0 c-24 0 -78 3 -120 6 l-77 7 0 98 0 99 60 0 c33 0 60 -2 60 -5 0 -3
-18 -39 -40 -79 -22 -40 -40 -76 -40 -79 0 -4 22 -7 48 -7 l48 0 52 89 c44 76
52 97 52 140 l0 51 -99 0 c-83 0 -102 3 -124 20 -30 24 -99 27 -117 5z"/>
</g>
</svg>
